{"title":"Be.a.mother.2012.1080p.WEB-DL.x264.AAC-XLMV ","uid":7482763,"size":1109918127,"categoryP":"video","categoryS":"hd___movies","magnet":"?xt=urn:btih:3b11c396ce919b5782e1f1c512b787a05d421435&amp;dn=Be.a.mother.2012.1080p.WEB-DL.x264.AAC-XLMV+&amp;tr=udp%3A%2F%2Ftracker.openbittorrent.com%3A80&amp;tr=udp%3A%2F%2Fopen.demonii.com%3A1337&amp;tr=udp%3A%2F%2Ftracker.coppersurfer.tk%3A6969&amp;tr=udp%3A%2F%2Fexodus.desync.com%3A6969","seeders":0,"leechers":0,"uploader":"xxbel","files":-1,"time":1343486024,"description":"    General\n          Format : Flash Video\n          File size : 1.03 GiB\n          Duration : 1h 31mn\n          Overall bit rate : 1 609 Kbps\n          Tagging application : Yet Another Metadata Injector for FLV - Version 1.8\n       Video\n          Format : AVC\n          Format/Info : Advanced Video Codec\n          Format profile : &lt;a class=&quot;__cf_email__&quot; href=&quot;/cdn-cgi/l/email-protection&quot; data-cfemail=&quot;622a0b050a222e564c52&quot;&gt;[email&amp;#160;protected]&lt;/a&gt;&lt;script cf-hash='f9e31' type=&quot;text/javascript&quot;&gt;\n/* &lt;![CDATA[ */!function(){try{var t=&quot;currentScript&quot;in document?document.currentScript:function(){for(var t=document.getElementsByTagName(&quot;script&quot;),e=t.length;e--;)if(t[e].getAttribute(&quot;cf-hash&quot;))return t[e]}();if(t&amp;&amp;t.previousSibling){var e,r,n,i,c=t.previousSibling,a=c.getAttribute(&quot;data-cfemail&quot;);if(a){for(e=&quot;&quot;,r=parseInt(a.substr(0,2),16),n=2;a.length-n;n+=2)i=parseInt(a.substr(n,2),16)^r,e+=String.fromCharCode(i);e=document.createTextNode(e),c.parentNode.replaceChild(e,c)}}}catch(u){}}();/* ]]&gt; */&lt;/script&gt;\n          Format settings, CABAC : Yes\n          Format settings, ReFrames : 4 frames\n          Codec ID : 7\n          Duration : 1h 31mn\n          Bit rate : 1 437 Kbps\n          Width : 1 904 pixels\n          Height : 792 pixels\n          Display aspect ratio : 2.40:1\n          Frame rate mode : Constant\n          Frame rate : 24.000 fps\n          Color space : YUV\n          Chroma subsampling : 4:2:0\n          Bit depth : 8 bits\n          Scan type : Progressive\n          Bits/(Pixel*Frame) : 0.040\n          Stream size : 969 MiB (92%)\n       Audio\n          Format : AAC\n          Format/Info : Advanced Audio Codec\n          Format profile : HE-AAC / LC\n          Codec ID : 10\n          Duration : 1h 31mn\n          Bit rate : 128 Kbps\n          Channel(s) : 2 channels\n          Channel positions : Front: L R\n          Sampling rate : 48.0 KHz / 24.0 KHz\n          Compression mode : Lossy\n          Stream size : 87.6 MiB (8%)","torrent":{"xt":"urn:btih:3b11c396ce919b5782e1f1c512b787a05d421435","amp;dn":"Be.a.mother.2012.1080p.WEB-DL.x264.AAC-XLMV+","amp;tr":["udp%3A%2F%2Ftracker.openbittorrent.com%3A80","udp%3A%2F%2Fopen.demonii.com%3A1337","udp%3A%2F%2Ftracker.coppersurfer.tk%3A6969","udp%3A%2F%2Fexodus.desync.com%3A6969"],"infoHash":"3b11c396ce919b5782e1f1c512b787a05d421435","infoHashBuffer":{"type":"Buffer","data":[59,17,195,150,206,145,155,87,130,225,241,197,18,183,135,160,93,66,20,53]},"announce":[],"urlList":[]}}